#N canvas 392 22 1048 763 10;
#X declare -lib percolate;
#X obj 261 14 loadbang;
#X obj 261 37 bng 15 250 50 0 empty empty empty 0 -6 0 8 -262144 -1
-1;
#X obj 261 76 unpack 0 0 0 0 0 0;
#X floatatom 261 306 5 0 0 0 - - -;
#X floatatom 263 406 0 0 100 0 - - -;
#N canvas 331 136 786 621 output 0;
#X obj 455 510 t b;
#X obj 455 450 f;
#X obj 455 390 inlet;
#X obj 455 540 f;
#X msg 566 532 0;
#X msg 455 420 bang;
#X obj 455 480 moses 1;
#X obj 566 502 t b f;
#X obj 535 460 moses 1;
#X obj 107 121 dbtorms;
#X obj 535 430 r master-lvl;
#X obj 107 28 r master-lvl;
#X obj 455 570 s master-lvl;
#X obj 36 228 inlet~;
#X obj 250 258 inlet;
#X obj 268 283 s master-lvl;
#X msg 119 57 set \$1;
#X obj 119 87 outlet;
#X msg 250 309 \; pd dsp 1;
#X obj 107 181 line~;
#X obj 36 258 *~;
#X obj 36 288 dac~;
#X obj 107 151 pack 0 50;
#X text 23 205 audio in;
#X text 2 313 out both channels;
#X text 273 182 Level input. Send to master-lvl and start DSP (we infer
that if you're changing the level you want to hear the network.) If
you start DSP when it's already running there's no effect.;
#X text 59 542 here is the previous nonzero master-lvl -->;
#X text 98 451 recall previous value of master-lvl -->;
#X text 239 482 test if less than 1 -->;
#X text 203 510 if true convert to bang -->;
#X text 218 351 Mute control. If the master level is zero \, restore
to the last nonzero one \, otherwise zero it.;
#X text 182 86 <-- update the number box to show new level;
#X text 178 120 <-- convert from dB to linear units;
#X text 196 150 <-- make a smooth ramp to avoid clicks or zipper noise
;
#X text 333 318 <-- automatically start DSP;
#X connect 0 0 3 0;
#X connect 1 0 6 0;
#X connect 2 0 5 0;
#X connect 3 0 12 0;
#X connect 4 0 12 0;
#X connect 5 0 1 0;
#X connect 6 0 0 0;
#X connect 6 1 7 0;
#X connect 7 0 4 0;
#X connect 8 1 3 1;
#X connect 9 0 22 0;
#X connect 10 0 1 1;
#X connect 10 0 8 0;
#X connect 11 0 9 0;
#X connect 11 0 16 0;
#X connect 13 0 20 0;
#X connect 14 0 15 0;
#X connect 14 0 18 0;
#X connect 16 0 17 0;
#X connect 19 0 20 1;
#X connect 20 0 21 0;
#X connect 20 0 21 1;
#X connect 22 0 19 0;
#X restore 252 431 pd output;
#X obj 261 191 expr 5.-(4.*($i1/128.));
#X floatatom 261 142 5 0 0 0 - - -;
#X obj 325 217 expr 0.027236 + (0.2 *$i1 / 128.);
#X floatatom 325 142 5 0 0 0 - - -;
#X floatatom 325 312 5 0 0 0 - - -;
#X obj 389 165 * 0.01;
#X floatatom 389 312 5 0 0 0 - - -;
#X obj 453 165 / 8;
#X floatatom 453 312 5 0 0 0 - - -;
#X obj 517 165 * 0.001;
#X floatatom 517 312 5 0 0 0 - - -;
#X obj 582 165 mtof;
#X floatatom 582 312 5 0 0 0 - - -;
#X msg 301 410 mute;
#X floatatom 389 142 5 0 0 0 - - -;
#X floatatom 453 142 5 0 0 0 - - -;
#X floatatom 517 142 5 0 0 0 - - -;
#X floatatom 582 138 5 0 0 0 - - -;
#X text 330 274 position;
#X text 394 272 velocity;
#X obj 681 458 tgl 15 0 empty empty empty 0 -6 0 10 -262144 -1 -1 1
1;
#X floatatom 737 520 5 0 0 0 - - -;
#X obj 162 190 r bow_pressure;
#X obj 737 549 s bow_pressure;
#X obj 737 498 snapshot~;
#X obj 744 476 tabosc4~ envelope;
#X obj 261 339 bowed~ _______________________________________________
;
#X obj 744 447 sig~ 0.25;
#X obj 681 476 metro 20;
#X obj 681 337 tgl 15 0 empty empty empty 0 -6 0 10 -262144 -1 -1 0
1;
#X floatatom 738 337 5 0 0 0 - - -;
#X obj 738 359 expr 60000/$f1;
#X obj 788 298 loadbang;
#X text 736 318 BPM:;
#X obj 847 351 / 60;
#X floatatom 744 428 5 0 0 0 - - -;
#X obj 681 419 loadbang;
#X msg 681 438 1;
#N canvas 0 22 450 300 (subpatch) 0;
#X array notes 16 float 3;
#A 0 74 79 92 89 90 90 92 95 96 93 90 86 93 88 86 90;
#X coords 0 127 16 0 200 127 1;
#X restore 692 146 graph;
#X floatatom 761 73 5 0 0 0 - - -;
#X obj 799 93 counter 0 15;
#X obj 782 93 bng 15 250 50 0 empty empty empty 0 -6 0 10 -262144 -1
-1;
#X obj 761 119 tabwrite notes;
#X obj 938 414 counter 0 15;
#X obj 938 469 tabread notes;
#X obj 938 510 s the_note;
#X floatatom 938 491 5 0 0 0 - - -;
#X obj 750 399 bng 15 250 50 0 empty empty empty 0 -6 0 10 -262144
-1 -1;
#X msg 788 320 15;
#X obj 582 107 r the_note;
#X msg 818 320 30;
#X msg 843 447 0;
#X obj 162 215 vsl 15 128 0 1.5 0 0 empty empty empty 0 -8 0 10 -262144
-1 -1 0 1;
#X obj 858 473 phasor~;
#X floatatom 858 518 5 0 0 0 - - -;
#X obj 858 496 snapshot~;
#X obj 858 537 s bow_pos;
#X obj 694 277 hsl 200 10 0 15 0 0 empty note_pos empty -2 -6 0 10
-262144 -4160 -1 0 1;
#X obj 953 439 s note_pos;
#X msg 848 320 60;
#X msg 261 54 117 450 51 42 12 67;
#X obj 85 415 import percolate;
#X msg 88 493 /somedata \$1;
#X obj 88 562 print msg;
#X obj 325 562 print port;
#X obj 206 563 print host;
#X floatatom 0 689 5 0 0 0 - - -;
#X floatatom 64 689 5 0 0 0 - - -;
#X obj 88 532 oscmulticast @group 224.0.1.3 @port 7571;
#X msg 892 322 120;
#X text 701 45 Set some notes;
#X msg 822 48 63;
#X msg 263 382 100;
#X floatatom 595 363 5 0 0 0 - - -;
#X obj 602 392 * 0.01;
#X obj 681 382 metro 5000;
#X msg 947 346 300;
#X text 262 465 volume;
#X text 638 304 velocity of playing the note;
#X text 619 338 turn it on / off;
#X text 268 271 bow pressure;
#X text 455 237 vibrato frequency;
#X text 520 263 vibrato gain;
#X floatatom 123 689 5 0 0 0 - - -;
#X floatatom 180 689 5 0 0 0 - - -;
#X obj 364 491 r df;
#X obj 437 493 r dp;
#X floatatom 234 689 5 0 0 0 - - -;
#X floatatom 291 689 5 0 0 0 - - -;
#X obj 71 617 route /CurlingVR/data/AverageForce /CurlingVR/data/Frequency
CurlingVR/data/XMinTarget CurlingVR/data/XMaxTarget CurlingVR/data/YMinTarget
CurlingVR/data/YMaxTarget;
#X obj 64 739 s frequency;
#X obj 123 717 s ltf;
#X obj 180 740 s utf;
#X obj 0 717 s pressure;
#X obj 234 717 s ltp;
#X obj 291 741 s utp;
#X obj 363 411 r pressure;
#X obj 436 413 r frequency;
#X floatatom 85 455 5 0 0 0 - - -;
#X text 592 295;
#X text 588 276 frequency;
#X connect 0 0 1 0;
#X connect 1 0 66 0;
#X connect 2 0 7 0;
#X connect 2 1 9 0;
#X connect 2 2 20 0;
#X connect 2 3 21 0;
#X connect 2 4 22 0;
#X connect 2 5 23 0;
#X connect 3 0 32 0;
#X connect 4 0 5 1;
#X connect 6 0 3 0;
#X connect 7 0 6 0;
#X connect 8 0 10 0;
#X connect 9 0 8 0;
#X connect 10 0 32 1;
#X connect 11 0 12 0;
#X connect 12 0 32 2;
#X connect 13 0 14 0;
#X connect 14 0 32 3;
#X connect 15 0 16 0;
#X connect 16 0 32 4;
#X connect 17 0 18 0;
#X connect 18 0 32 5;
#X connect 19 0 5 2;
#X connect 20 0 11 0;
#X connect 21 0 13 0;
#X connect 22 0 15 0;
#X connect 23 0 17 0;
#X connect 26 0 34 0;
#X connect 27 0 29 0;
#X connect 28 0 58 0;
#X connect 30 0 27 0;
#X connect 31 0 30 0;
#X connect 32 0 5 0;
#X connect 33 0 31 0;
#X connect 33 0 59 0;
#X connect 34 0 30 0;
#X connect 34 0 61 0;
#X connect 35 0 81 0;
#X connect 36 0 37 0;
#X connect 36 0 40 0;
#X connect 37 0 81 1;
#X connect 38 0 54 0;
#X connect 40 0 41 0;
#X connect 41 0 33 0;
#X connect 42 0 43 0;
#X connect 43 0 26 0;
#X connect 45 0 48 0;
#X connect 45 0 47 0;
#X connect 46 0 48 1;
#X connect 47 0 46 0;
#X connect 49 0 50 0;
#X connect 49 0 64 0;
#X connect 50 0 52 0;
#X connect 52 0 51 0;
#X connect 53 0 49 0;
#X connect 53 0 57 0;
#X connect 54 0 36 0;
#X connect 55 0 23 0;
#X connect 56 0 36 0;
#X connect 57 0 31 1;
#X connect 57 0 59 1;
#X connect 59 0 61 0;
#X connect 60 0 62 0;
#X connect 61 0 60 0;
#X connect 65 0 36 0;
#X connect 66 0 2 0;
#X connect 68 0 74 0;
#X connect 72 0 99 0;
#X connect 73 0 96 0;
#X connect 74 0 69 0;
#X connect 74 0 95 0;
#X connect 75 0 36 0;
#X connect 77 0 45 0;
#X connect 78 0 4 0;
#X connect 79 0 80 0;
#X connect 81 0 53 0;
#X connect 82 0 36 0;
#X connect 89 0 97 0;
#X connect 90 0 98 0;
#X connect 93 0 100 0;
#X connect 94 0 101 0;
#X connect 95 0 72 0;
#X connect 95 1 73 0;
#X connect 95 2 89 0;
#X connect 95 3 90 0;
#X connect 95 4 93 0;
#X connect 95 5 94 0;
#X connect 104 0 68 0;
